<svg width="139" height="23" viewBox="0 0 139 23" fill="none" xmlns="http://www.w3.org/2000/svg">
<path d="M24.62 3.92L20.16 16.34L16.72 17.36L13.88 9.32L11.64 16.34L8.18 17.36L2.88 3.54L0.9 2.56L1.54 1.26H8.02V2.38L6.62 3.42L10.6 14L12.94 6.7L11.82 3.54L10 2.58L10.64 1.28H17.64V2.4L15.64 3.64L19.18 14.02L22.68 4.06L19.52 2.58L20.18 1.28H26.62L26.64 2.38L24.62 3.92ZM32.0784 6.02C33.0651 6.02 33.9451 6.25333 34.7184 6.72C35.4918 7.17333 36.0918 7.8 36.5184 8.6C36.9584 9.4 37.1784 10.2867 37.1784 11.26C37.1784 12.3133 36.8384 13.3 36.1584 14.22C35.4784 15.1267 34.6251 15.8533 33.5984 16.4C32.5851 16.9333 31.6051 17.2 30.6584 17.2C29.6851 17.2 28.8051 16.9733 28.0184 16.52C27.2451 16.0533 26.6384 15.42 26.1984 14.62C25.7718 13.82 25.5584 12.9333 25.5584 11.96C25.5584 10.9067 25.8984 9.92667 26.5784 9.02C27.2584 8.1 28.1051 7.37333 29.1184 6.84C30.1451 6.29333 31.1318 6.02 32.0784 6.02ZM30.9184 8.34C30.3584 8.34 29.9318 8.56667 29.6384 9.02C29.3584 9.46 29.2184 10.12 29.2184 11C29.2184 12.12 29.4451 13.0533 29.8984 13.8C30.3518 14.5333 30.9918 14.9 31.8184 14.9C32.3651 14.9 32.7784 14.6733 33.0584 14.22C33.3518 13.7533 33.4984 13.08 33.4984 12.2C33.4984 11.08 33.2718 10.16 32.8184 9.44C32.3651 8.70667 31.7318 8.34 30.9184 8.34ZM58.4442 17H53.8842V10.36C53.8842 9.81333 53.7976 9.43333 53.6242 9.22C53.4642 8.99333 53.1642 8.88 52.7242 8.88C52.0709 8.88 51.4309 9.10667 50.8042 9.56V15.14L52.4842 15.7L51.8442 17H47.4042V10.36C47.4042 9.81333 47.3176 9.43333 47.1442 9.22C46.9842 8.99333 46.6842 8.88 46.2442 8.88C45.5909 8.88 44.9576 9.10667 44.3442 9.56V15.14L46.0042 15.7L45.3642 17H39.1642V15.88L40.9442 14.38V9.84L39.1642 8.72V7.6L43.3242 5.84L44.1042 8.16L46.5042 6.18C46.8242 6.07333 47.1909 6.02 47.6042 6.02C48.3909 6.02 49.0509 6.20667 49.5842 6.58C50.1309 6.94 50.4976 7.44 50.6842 8.08L53.0042 6.18C53.3242 6.07333 53.6909 6.02 54.1042 6.02C55.0776 6.02 55.8509 6.3 56.4242 6.86C57.0109 7.40667 57.3042 8.15333 57.3042 9.1V15.1L59.0842 15.7L58.4442 17ZM66.9222 6.02C68.3222 6.02 69.4022 6.55333 70.1622 7.62C70.9355 8.68667 71.3089 10.1667 71.2822 12.06H64.0822C64.2155 12.8733 64.5022 13.5267 64.9422 14.02C65.3822 14.5 65.9555 14.74 66.6622 14.74C67.5955 14.74 68.9355 14.2733 70.6822 13.34L71.2822 14.48L68.2422 16.9C67.4555 17.1 66.5422 17.2 65.5022 17.2C64.5289 17.2 63.6489 16.9733 62.8622 16.52C62.0889 16.0533 61.4822 15.42 61.0422 14.62C60.6155 13.82 60.4022 12.9333 60.4022 11.96C60.4022 10.9067 60.7422 9.92667 61.4222 9.02C62.1022 8.1 62.9489 7.37333 63.9622 6.84C64.9889 6.29333 65.9755 6.02 66.9222 6.02ZM65.8222 8.34C65.2355 8.34 64.7955 8.54 64.5022 8.94C64.2089 9.32667 64.0489 9.92667 64.0222 10.74H67.8422C67.7355 9.91333 67.5355 9.30667 67.2422 8.92C66.9622 8.53333 66.4822 8.34 65.8022 8.34H65.8222ZM86.4448 17H81.9048V10.6C81.9048 9.97333 81.8048 9.53333 81.6048 9.28C81.4182 9.01333 81.0848 8.88 80.6048 8.88C79.8982 8.88 79.1982 9.10667 78.5048 9.56V15.1L80.3048 15.7L79.6448 17H73.3248V15.88L75.1048 14.38V9.84L73.3248 8.72V7.6L77.4848 5.84L78.2648 8.16L80.7448 6.18C81.1048 6.07333 81.5115 6.02 81.9648 6.02C82.9782 6.02 83.7848 6.3 84.3848 6.86C84.9982 7.40667 85.3048 8.15333 85.3048 9.1V15.1L87.1048 15.7L86.4448 17ZM100.948 17.02H88.3077V15.9L90.1877 14.42V3.24L87.9677 2.58L88.6277 1.28H100.748L102.188 0.92V6.02L101.088 6.46L98.6277 2.8H93.8077V8.2H96.1877L97.6477 5.96H98.7677V11.78L97.4677 12.44L96.1677 9.74H93.8077V15.48H98.4677L101.288 11.4L102.388 11.86V17.38L100.948 17.02ZM123.874 17H119.314V10.36C119.314 9.81333 119.227 9.43333 119.054 9.22C118.894 8.99333 118.594 8.88 118.154 8.88C117.501 8.88 116.861 9.10667 116.234 9.56V15.14L117.914 15.7L117.274 17H112.834V10.36C112.834 9.81333 112.747 9.43333 112.574 9.22C112.414 8.99333 112.114 8.88 111.674 8.88C111.021 8.88 110.387 9.10667 109.774 9.56V15.14L111.434 15.7L110.794 17H104.594V15.88L106.374 14.38V9.84L104.594 8.72V7.6L108.754 5.84L109.534 8.16L111.934 6.18C112.254 6.07333 112.621 6.02 113.034 6.02C113.821 6.02 114.481 6.20667 115.014 6.58C115.561 6.94 115.927 7.44 116.114 8.08L118.434 6.18C118.754 6.07333 119.121 6.02 119.534 6.02C120.507 6.02 121.281 6.3 121.854 6.86C122.441 7.40667 122.734 8.15333 122.734 9.1V15.1L124.514 15.7L123.874 17ZM132.309 17.2C131.762 17.2 131.269 17.06 130.829 16.78V19.98L133.869 20.78L133.229 22.08H125.649V20.96L127.429 19.46V9.84L125.649 8.72V7.6L129.809 5.84L130.589 8.18L133.089 6.18C133.516 6.07333 134.002 6.02 134.549 6.02C135.362 6.02 136.096 6.25333 136.749 6.72C137.416 7.17333 137.929 7.8 138.289 8.6C138.662 9.4 138.849 10.2867 138.849 11.26C138.849 12.3133 138.509 13.3 137.829 14.22C137.149 15.1267 136.296 15.8533 135.269 16.4C134.256 16.9333 133.276 17.2 132.329 17.2H132.309ZM133.269 8.8C132.829 8.8 132.409 8.85333 132.009 8.96C131.622 9.06667 131.222 9.26 130.809 9.54V12.7C130.809 13.3267 131.036 13.8533 131.489 14.28C131.956 14.6933 132.616 14.9 133.469 14.9C134.042 14.9 134.476 14.6733 134.769 14.22C135.076 13.7667 135.229 13.1 135.229 12.22C135.229 11.22 135.062 10.4 134.729 9.76C134.396 9.12 133.916 8.8 133.289 8.8H133.269Z" fill="black"/>
</svg>
